<svg height="3630" width="720" xmlns="http://www.w3.org/2000/svg">
<rect height="3630" fill="#555" width="720"></rect>
<text fill="#7f7" font-family="Courier New" font-size="12" xml:space="preserve">
<tspan x="10" y="26"></tspan>
<tspan x="10" y="42">&gt; npmdoc-temporal@0.0.1 test /home/travis/build/npmdoc/node-npmdoc-temporal</tspan>
<tspan x="10" y="58">&gt; (set -e; export PORT=$(utility2 shServerPortRandom); utility2 test test.js)</tspan>
<tspan x="10" y="74"></tspan>
<tspan x="10" y="90"></tspan>
<tspan x="10" y="106">[MODE_BUILD=npmTest] - 2017-04-07T13:29:52Z - npm-testing /home/travis/build/npmdoc/node-npmdoc-\</tspan>
<tspan x="10" y="122">temporal</tspan>
<tspan x="10" y="138"></tspan>
<tspan x="10" y="154"></tspan>
<tspan x="10" y="170">covering $ /home/travis/.nvm/versions/node/v6.10.2/bin/node /home/travis/build/npmdoc/node-npmdo\</tspan>
<tspan x="10" y="186">c-temporal/test.js</tspan>
<tspan x="10" y="202">merging file:///home/travis/build/npmdoc/node-npmdoc-temporal/tmp/build/test-report.json to test\</tspan>
<tspan x="10" y="218">-report</tspan>
<tspan x="10" y="234">&gt; server listening on http-port 55460</tspan>
<tspan x="10" y="250">created apidoc file:///home/travis/build/npmdoc/node-npmdoc-temporal/tmp/build/apidoc.html</tspan>
<tspan x="10" y="266"></tspan>
<tspan x="10" y="282"></tspan>
<tspan x="10" y="298">browserTest - created electron entry-page /home/travis/build/npmdoc/node-npmdoc-temporal/tmp/ele\</tspan>
<tspan x="10" y="314">ctron.15b489b5d970.e6f1396f67e9b.html</tspan>
<tspan x="10" y="330"></tspan>
<tspan x="10" y="346">[node test-case 1 of 6 passed] - testCase_buildLib_default</tspan>
<tspan x="10" y="362">[node test-case 2 of 6 passed] - testCase_buildReadme_default</tspan>
<tspan x="10" y="378">[node test-case 3 of 6 passed] - testCase_buildTest_default</tspan>
<tspan x="10" y="394"></tspan>
<tspan x="10" y="410">browserTest - created electron entry-page /home/travis/build/npmdoc/node-npmdoc-temporal/tmp/ele\</tspan>
<tspan x="10" y="426">ctron.15b489b5dca0.42af8573e0a29.html</tspan>
<tspan x="10" y="442"></tspan>
<tspan x="10" y="458">Xlib:  extension "RANDR" missing on display ":99.0".</tspan>
<tspan x="10" y="474">Xlib:  extension "RANDR" missing on display ":99.0".</tspan>
<tspan x="10" y="490">merging file:///home/travis/build/npmdoc/node-npmdoc-temporal/tmp/build/test-report.json to test\</tspan>
<tspan x="10" y="506">-report</tspan>
<tspan x="10" y="522">&gt; Xlib:  extension "RANDR" missing on display ":99.0".</tspan>
<tspan x="10" y="538">server listening on http-port 53377</tspan>
<tspan x="10" y="554">[5849:0407/132954:WARNING:audio_manager.cc(314)] Multiple instances of AudioManager detected</tspan>
<tspan x="10" y="570">[5849:0407/132954:WARNING:audio_manager.cc(275)] Multiple instances of AudioManager detected</tspan>
<tspan x="10" y="586">[5892:0407/132954:ERROR:sandbox_linux.cc(343)] InitializeSandbox() called with multiple threads \</tspan>
<tspan x="10" y="602">in process gpu-process. </tspan>
<tspan x="10" y="618">[5849:0407/132954:ERROR:browser_gpu_channel_host_factory.cc(131)] Failed to create channel.</tspan>
<tspan x="10" y="634">merging file:///home/travis/build/npmdoc/node-npmdoc-temporal/tmp/build/test-report.json to test\</tspan>
<tspan x="10" y="650">-report</tspan>
<tspan x="10" y="666">Xlib:  extension "RANDR" missing on display ":99.0".</tspan>
<tspan x="10" y="682">[5853:0407/132954:WARNING:audio_manager.cc(314)] Multiple instances of AudioManager detected</tspan>
<tspan x="10" y="698">[5853:0407/132954:WARNING:audio_manager.cc(275)] Multiple instances of AudioManager detected</tspan>
<tspan x="10" y="714">[5922:0407/132954:ERROR:sandbox_linux.cc(343)] InitializeSandbox() called with multiple threads \</tspan>
<tspan x="10" y="730">in process gpu-process. </tspan>
<tspan x="10" y="746">[5853:0407/132954:ERROR:browser_gpu_channel_host_factory.cc(131)] Failed to create channel.</tspan>
<tspan x="10" y="762"></tspan>
<tspan x="10" y="778">browserTest - opened url /home/travis/build/npmdoc/node-npmdoc-temporal/tmp/build/apidoc.html</tspan>
<tspan x="10" y="794"></tspan>
<tspan x="10" y="810"></tspan>
<tspan x="10" y="826">browserTest - opened url http://127.0.0.1:55460?modeTest=1</tspan>
<tspan x="10" y="842"></tspan>
<tspan x="10" y="858">[ 1491571793369,</tspan>
<tspan x="10" y="874">  1491571793372,</tspan>
<tspan x="10" y="890">  1491571793376,</tspan>
<tspan x="10" y="906">  1491571793441,</tspan>
<tspan x="10" y="922">  1491571793522,</tspan>
<tspan x="10" y="938">  1491571793523,</tspan>
<tspan x="10" y="954">  1491571793524,</tspan>
<tspan x="10" y="970">  1491571793533,</tspan>
<tspan x="10" y="986">  1491571793634,</tspan>
<tspan x="10" y="1002">  1491571793635,</tspan>
<tspan x="10" y="1018">  1491571793637,</tspan>
<tspan x="10" y="1034">  1491571793638,</tspan>
<tspan x="10" y="1050">  1491571793639,</tspan>
<tspan x="10" y="1066">  1491571793640,</tspan>
<tspan x="10" y="1082">  1491571793641,</tspan>
<tspan x="10" y="1098">  1491571793642,</tspan>
<tspan x="10" y="1114">  1491571793643,</tspan>
<tspan x="10" y="1130">  1491571793644,</tspan>
<tspan x="10" y="1146">  1491571793645,</tspan>
<tspan x="10" y="1162">  1491571793646,</tspan>
<tspan x="10" y="1178">  1491571793647,</tspan>
<tspan x="10" y="1194">  1491571793649,</tspan>
<tspan x="10" y="1210">  1491571793650,</tspan>
<tspan x="10" y="1226">  1491571793651,</tspan>
<tspan x="10" y="1242">  1491571793652,</tspan>
<tspan x="10" y="1258">  1491571793653,</tspan>
<tspan x="10" y="1274">  1491571793654,</tspan>
<tspan x="10" y="1290">  1491571793655,</tspan>
<tspan x="10" y="1306">  1491571793656,</tspan>
<tspan x="10" y="1322">  1491571793658,</tspan>
<tspan x="10" y="1338">  1491571793659,</tspan>
<tspan x="10" y="1354">  1491571793660,</tspan>
<tspan x="10" y="1370">  1491571793661,</tspan>
<tspan x="10" y="1386">  1491571793662,</tspan>
<tspan x="10" y="1402">  1491571793663,</tspan>
<tspan x="10" y="1418">  1491571793664,</tspan>
<tspan x="10" y="1434">  1491571793665,</tspan>
<tspan x="10" y="1450">  1491571793666,</tspan>
<tspan x="10" y="1466">  1491571793668,</tspan>
<tspan x="10" y="1482">  1491571793669,</tspan>
<tspan x="10" y="1498">  1491571793670,</tspan>
<tspan x="10" y="1514">  1491571793671,</tspan>
<tspan x="10" y="1530">  1491571793672,</tspan>
<tspan x="10" y="1546">  1491571793673,</tspan>
<tspan x="10" y="1562">  1491571793674,</tspan>
<tspan x="10" y="1578">  1491571793675,</tspan>
<tspan x="10" y="1594">  1491571793676,</tspan>
<tspan x="10" y="1610">  1491571793677,</tspan>
<tspan x="10" y="1626">  1491571793678,</tspan>
<tspan x="10" y="1642">  1491571793680,</tspan>
<tspan x="10" y="1658">  1491571793681,</tspan>
<tspan x="10" y="1674">  1491571793682,</tspan>
<tspan x="10" y="1690">  1491571793683,</tspan>
<tspan x="10" y="1706">  1491571793684,</tspan>
<tspan x="10" y="1722">  1491571793685,</tspan>
<tspan x="10" y="1738">  1491571793687,</tspan>
<tspan x="10" y="1754">  1491571793688,</tspan>
<tspan x="10" y="1770">  1491571793689,</tspan>
<tspan x="10" y="1786">  1491571793690,</tspan>
<tspan x="10" y="1802">  1491571793691,</tspan>
<tspan x="10" y="1818">  1491571793692,</tspan>
<tspan x="10" y="1834">  1491571793693,</tspan>
<tspan x="10" y="1850">  1491571793694,</tspan>
<tspan x="10" y="1866">  1491571793695,</tspan>
<tspan x="10" y="1882">  1491571793696,</tspan>
<tspan x="10" y="1898">  1491571793697,</tspan>
<tspan x="10" y="1914">  1491571793699,</tspan>
<tspan x="10" y="1930">  1491571793700,</tspan>
<tspan x="10" y="1946">  1491571793701,</tspan>
<tspan x="10" y="1962">  1491571793702,</tspan>
<tspan x="10" y="1978">  1491571793703,</tspan>
<tspan x="10" y="1994">  1491571793704,</tspan>
<tspan x="10" y="2010">  1491571793705,</tspan>
<tspan x="10" y="2026">  1491571793706,</tspan>
<tspan x="10" y="2042">  1491571793707,</tspan>
<tspan x="10" y="2058">  1491571793708,</tspan>
<tspan x="10" y="2074">  1491571793709,</tspan>
<tspan x="10" y="2090">  1491571793711,</tspan>
<tspan x="10" y="2106">  1491571793712,</tspan>
<tspan x="10" y="2122">  1491571793714,</tspan>
<tspan x="10" y="2138">  1491571793717,</tspan>
<tspan x="10" y="2154">  1491571793718,</tspan>
<tspan x="10" y="2170">  1491571793719,</tspan>
<tspan x="10" y="2186">  1491571793720,</tspan>
<tspan x="10" y="2202">  1491571793721,</tspan>
<tspan x="10" y="2218">  1491571793722,</tspan>
<tspan x="10" y="2234">  1491571793724,</tspan>
<tspan x="10" y="2250">  1491571793725,</tspan>
<tspan x="10" y="2266">  1491571793726,</tspan>
<tspan x="10" y="2282">  1491571793727,</tspan>
<tspan x="10" y="2298">  1491571793728,</tspan>
<tspan x="10" y="2314">  1491571793729,</tspan>
<tspan x="10" y="2330">  1491571793731,</tspan>
<tspan x="10" y="2346">  1491571793732,</tspan>
<tspan x="10" y="2362">  1491571793733,</tspan>
<tspan x="10" y="2378">  1491571793734,</tspan>
<tspan x="10" y="2394">  1491571793735,</tspan>
<tspan x="10" y="2410">  1491571793736,</tspan>
<tspan x="10" y="2426">  1491571793737,</tspan>
<tspan x="10" y="2442">  1491571793738,</tspan>
<tspan x="10" y="2458">  ... 900 more items ]</tspan>
<tspan x="10" y="2474">[5853:0407/132956:INFO:CONSOLE(250)] "----------|-----------|-----------|-----------|-----------\</tspan>
<tspan x="10" y="2490">|</tspan>
<tspan x="10" y="2506">File      |   % Stmts |% Branches |   % Funcs |   % Lines |</tspan>
<tspan x="10" y="2522">----------|-----------|-----------|-----------|-----------|</tspan>
<tspan x="10" y="2538">----------|-----------|-----------|-----------|-----------|</tspan>
<tspan x="10" y="2554">All files |       100 |       100 |       100 |       100 |</tspan>
<tspan x="10" y="2570">----------|-----------|-----------|-----------|-----------|</tspan>
<tspan x="10" y="2586">", source: file:///home/travis/build/npmdoc/node-npmdoc-temporal/tmp/electron.15b489b5dca0.42af8\</tspan>
<tspan x="10" y="2602">573e0a29.html (250)</tspan>
<tspan x="10" y="2618">[5853:0407/132956:INFO:CONSOLE(250)] "created coverage file:///tmp/build/coverage.html/index.htm\</tspan>
<tspan x="10" y="2634">l", source: file:///home/travis/build/npmdoc/node-npmdoc-temporal/tmp/electron.15b489b5dca0.42af\</tspan>
<tspan x="10" y="2650">8573e0a29.html (250)</tspan>
<tspan x="10" y="2666">[node test-case 4 of 6 passed] - testCase_buildApp_default</tspan>
<tspan x="10" y="2682"></tspan>
<tspan x="10" y="2698">browserTest - created screenCapture file:///home/travis/build/npmdoc/node-npmdoc-temporal/tmp/bu\</tspan>
<tspan x="10" y="2714">ild/screenCapture.npmTest.browser._2Fhome_2Ftravis_2Fbuild_2Fnpmdoc_2Fnode-npmdoc-temporal_2Ftmp\</tspan>
<tspan x="10" y="2730">_2Fbuild_2Fapidoc.html.png</tspan>
<tspan x="10" y="2746"></tspan>
<tspan x="10" y="2762">browserTest - created screenCapture file:///home/travis/build/npmdoc/node-npmdoc-temporal/tmp/bu\</tspan>
<tspan x="10" y="2778">ild/screenCapture.npmTest.browser._2Fhome_2Ftravis_2Fbuild_2Fnpmdoc_2Fnode-npmdoc-temporal_2Ftmp\</tspan>
<tspan x="10" y="2794">_2Fbuild_2Fapidoc.html.html</tspan>
<tspan x="10" y="2810"></tspan>
<tspan x="10" y="2826">browserTest - exit-code 0 - /home/travis/build/npmdoc/node-npmdoc-temporal/tmp/build/apidoc.html</tspan>
<tspan x="10" y="2842"></tspan>
<tspan x="10" y="2858">[node test-case 5 of 6 passed] - testCase_buildApidoc_default</tspan>
<tspan x="10" y="2874"></tspan>
<tspan x="10" y="2890">browserTest - created screenCapture file:///home/travis/build/npmdoc/node-npmdoc-temporal/tmp/bu\</tspan>
<tspan x="10" y="2906">ild/screenCapture.npmTest.browser..png</tspan>
<tspan x="10" y="2922"></tspan>
<tspan x="10" y="2938">browserTest - created screenCapture file:///home/travis/build/npmdoc/node-npmdoc-temporal/tmp/bu\</tspan>
<tspan x="10" y="2954">ild/screenCapture.npmTest.browser..html</tspan>
<tspan x="10" y="2970"></tspan>
<tspan x="10" y="2986">browserTest - exit-code 0 - http://127.0.0.1:55460?modeTest=1</tspan>
<tspan x="10" y="3002"></tspan>
<tspan x="10" y="3018"></tspan>
<tspan x="10" y="3034">browserTest - merged coverage from /home/travis/build/npmdoc/node-npmdoc-temporal/tmp/coverage.n\</tspan>
<tspan x="10" y="3050">pmTest.browser.%2F.json</tspan>
<tspan x="10" y="3066"></tspan>
<tspan x="10" y="3082"></tspan>
<tspan x="10" y="3098">browserTest - merging test-report from /home/travis/build/npmdoc/node-npmdoc-temporal/tmp/test-r\</tspan>
<tspan x="10" y="3114">eport.npmTest.browser.%2F.json</tspan>
<tspan x="10" y="3130"></tspan>
<tspan x="10" y="3146">[node test-case 6 of 6 passed] - testCase_webpage_default</tspan>
<tspan x="10" y="3162">-----------------------------|-----------|-----------|-----------|-----------|</tspan>
<tspan x="10" y="3178">File                         |   % Stmts |% Branches |   % Funcs |   % Lines |</tspan>
<tspan x="10" y="3194">-----------------------------|-----------|-----------|-----------|-----------|</tspan>
<tspan x="10" y="3210">   node-npmdoc-temporal/     |       100 |       100 |       100 |       100 |</tspan>
<tspan x="10" y="3226">      example.js             |       100 |       100 |       100 |       100 |</tspan>
<tspan x="10" y="3242">      lib.npmdoc_temporal.js |       100 |       100 |       100 |       100 |</tspan>
<tspan x="10" y="3258">      test.js                |       100 |       100 |       100 |       100 |</tspan>
<tspan x="10" y="3274">-----------------------------|-----------|-----------|-----------|-----------|</tspan>
<tspan x="10" y="3290">All files                    |       100 |       100 |       100 |       100 |</tspan>
<tspan x="10" y="3306">-----------------------------|-----------|-----------|-----------|-----------|</tspan>
<tspan x="10" y="3322"></tspan>
<tspan x="10" y="3338">created coverage file:///home/travis/build/npmdoc/node-npmdoc-temporal/tmp/build/coverage.html/i\</tspan>
<tspan x="10" y="3354">ndex.html</tspan>
<tspan x="10" y="3370">merging file:///home/travis/build/npmdoc/node-npmdoc-temporal/tmp/build/test-report.json to test\</tspan>
<tspan x="10" y="3386">-report</tspan>
<tspan x="10" y="3402"></tspan>
<tspan x="10" y="3418">-------------------------------------------------------</tspan>
<tspan x="10" y="3434">| test-report - buildNpmdoc - node - linux v6.10.2 - 2017-04-07T13:29:14.235Z</tspan>
<tspan x="10" y="3450">|   53870 ms            0 failed        6 passed      |</tspan>
<tspan x="10" y="3466">-------------------------------------------------------</tspan>
<tspan x="10" y="3482"></tspan>
<tspan x="10" y="3498">created test-report file:///home/travis/build/npmdoc/node-npmdoc-temporal/tmp/build/test-report.\</tspan>
<tspan x="10" y="3514">html</tspan>
<tspan x="10" y="3530"></tspan>
<tspan x="10" y="3546"></tspan>
<tspan x="10" y="3562">npmTest - 0 failed tests</tspan>
<tspan x="10" y="3578"></tspan>
<tspan x="10" y="3594"></tspan>
<tspan x="10" y="3610">[MODE_BUILD=npmTest] - 2017-04-07T13:30:11Z - EXIT_CODE - 0</tspan>
</text>
</svg>
